<svg xmlns="http://www.w3.org/2000/svg" width="600" height="600" viewBox="-0.02 -0.02 1.04 1.04"><circle cx=".5" cy=".5" r=".5" fill="#fff" stroke="#e9cc1b" stroke-width=".01"/><circle cx=".5" cy=".5" r=".432" fill="#fff" stroke="#005696" stroke-width=".1"/><path fill="#e9cc1b" d="M.928.574.903.58l.022.014zM.954.555.95.577Q.95.572.947.571H.941L.93.573.929.596l.01.006H.94C.944.605.945.6.945.599h.002L.944.615H.943Q.943.613.94.61L.931.602.89.577V.575L.943.562Q.952.56.953.555zM.902.617H.895v.001H.891L.89.62H.889L.887.622v.001H.885v.002H.883v.002H.882L.881.63v.002a.02.02 0 0 0 0 .014Q.884.652.9.658C.918.664.93.657.932.646A.03.03 0 0 0 .93.625L.932.624s.008.01.003.025C.93.663.918.675.897.668A.03.03 0 0 1 .877.63L.886.617.884.612V.61l.02.005zM.908.71V.707L.91.706V.7H.907L.906.698H.904V.697L.868.682Q.862.677.86.686H.856l.01-.024H.87q-.006.01.003.013L.908.69q.008.004.01-.005L.92.686.91.71zM.86.736.862.734.863.733V.732h.001V.73L.865.729V.726h.001v-.01H.863V.714H.862V.713H.861V.712H.86V.711C.85.706.844.716.842.719q-.003.005 0 .006zM.907.717.9.73.866.734.863.738l.015.009Q.884.752.89.744L.878.767.877.764Q.88.757.873.754L.84.734Q.834.73.83.737L.828.736l.013-.02C.844.707.854.696.865.703.875.71.871.72.87.725L.898.721.905.716zM.87.777.84.813Q.845.806.838.8L.808.777Q.8.772.795.778L.825.74l.01.008L.832.75Q.824.743.817.755L.81.765q-.002 0 0 .003L.825.78.834.77Q.84.763.834.757V.756L.85.768V.77Q.84.764.836.772l-.009.01.017.014C.848.798.848.798.856.788Q.866.778.86.766L.861.764zM.795.78.793.783v.001H.792V.79h.003v.001h.001l.026.03q.006.006.011 0l.001.001L.815.84.814.837Q.82.832.814.826L.788.796l.016.052V.85L.754.83l.023.025q.008.01.014.003l.001.001-.015.014V.871C.78.866.782.864.776.857L.752.83Q.746.823.74.83V.828L.751.817l.045.02L.78.79.794.779zM.737.87.716.856.72.882zm.031.007L.75.89Q.753.886.752.883L.748.879.74.874.72.886l.003.01V.9C.727.903.73.9.732.9L.718.91V.89L.71.845.712.844l.045.03q.007.007.01.003zm-.093.03V.905H.673V.903H.672V.902H.67V.901H.663L.65.909l.007.017q.004.009.01.005L.67.93.647.94V.938Q.654.936.65.928L.636.892Q.632.884.626.888V.886L.668.87l.004.012H.671C.667.876.665.876.656.879L.645.882Q.64.883.643.886L.65.904.662.9Q.671.897.668.888H.67l.007.018zM.62.917V.913L.616.91.615.907V.905L.613.904V.903L.612.902.61.9.609.899H.608V.897H.605V.896H.603V.895H.596Q.578.898.582.926c.004.02.015.025.024.022Q.624.946.62.918m-.046.01V.913h.001V.908L.576.905h.001V.904L.58.902V.9h.001L.582.899.583.898.585.897.588.895H.59L.591.893h.002L.594.892C.608.89.624.896.63.916.634.934.624.948.61.952Q.581.956.572.929M.535.922H.533C.531.914.526.906.516.906q-.008 0-.008.009c0 .013.03.014.03.032C.538.954.533.963.52.963L.506.961Q.504.96.504.964H.502L.499.945H.5C.502.95.507.96.519.96Q.53.96.53.95C.53.945.528.942.515.935Q.5.93.5.918C.5.908.508.903.516.903l.012.002Q.53.905.53.902h.002zm-.051.04L.437.958V.956Q.445.958.445.95L.45.911Q.449.902.442.9l.046.004v.012H.484Q.486.906.473.907L.46.904q-.003 0-.003.003l-.002.02H.47Q.48.93.48.922h.002L.48.941H.478Q.478.933.47.933L.456.931.454.953c0 .003 0 .003.012.004q.015.003.02-.01L.49.949zM.415.954.39.948V.946Q.403.95.4.94L.41.897.407.896C.396.894.394.895.39.904H.388L.392.888l.048.01-.003.015H.435Q.436.9.424.9L.419.899.41.942Q.407.95.416.952zM.365.916.364.89.346.91zm.013.03L.358.937V.936q.005.002.007 0V.92L.343.912.336.921.334.924C.333.927.337.928.338.929v.002L.322.925V.923h.005l.01-.01L.37.88h.002l.003.055q0 .009.005.01zm-.07-.03L.286.906V.904C.294.908.295.906.298.9l.02-.039L.314.86C.305.855.302.855.296.863L.294.862.302.849l.043.023L.34.885H.337Q.343.871.33.867L.326.866l-.02.04Q.3.911.308.915zM.284.858.283.857Q.288.845.278.835.271.831.266.837C.258.847.282.866.27.88Q.263.892.247.883l-.01-.01H.233L.241.855h.001c0 .005-.004.017.006.024q.01.005.014-.002Q.268.874.26.858.252.843.258.834q.01-.01.021-.002.007.006.009.01L.292.84h.002zM.176.81H.174v.005h.001c.004.005.02.02.038.003a.03.03 0 0 0 .008-.02Q.224.791.213.78.209.776.208.78zM.16.8l.001.001h.001v.001h.001v.001H.17V.802L.171.801.2.773Q.207.77.2.764L.202.761.217.78Q.241.803.22.825C.212.833.195.84.176.82L.16.803zM.15.791.124.753V.752Q.13.759.135.754L.167.73Q.175.726.169.721L.17.718l.027.038-.01.007C.191.757.19.755.185.747L.179.737Q.178.735.175.737l-.016.01.008.012q.005.008.012.003L.18.763.164.775.163.773Q.17.768.163.761L.157.75.14.762C.136.764.135.764.143.775q.008.013.02.009l.002.002zM.113.734.1.711h.002q.005.008.012.003l.038-.02L.15.688Q.146.677.134.682L.133.68.146.674.17.717.156.725V.723Q.165.716.158.705L.156.701.117.722Q.109.725.114.733ZM.083.668h.001V.67l.001.001v.001h.001l.001.001h.006L.13.657Q.138.656.134.647h.002l.01.024H.143Q.14.663.134.666L.096.681Q.09.683.093.69L.091.693.081.668zm.05-.023H.131V.642L.13.641V.64H.12L.074.652V.651L.11.6.078.61Q.066.612.069.62L.067.622.062.601h.002q.001.01.013.005l.037-.01Q.118.59.116.586h.002l.004.015L.09.644.118.636c.01-.002.01-.005.009-.01L.129.624zM.115.585V.581L.114.58H.113V.578H.111V.577H.104L.08.581C.074.58.058.583.056.56S.07.536.076.536L.103.534Q.11.534.11.524L.114.55H.112q0-.008-.008-.007L.076.546C.07.546.058.547.06.562q.001.01.008.014H.08L.104.575c.01 0 .01-.003.01-.01h.002l.002.02zM.883.35.862.31h.001q.004.007.01.003L.909.294Q.916.29.912.284L.913.283l.022.041L.924.33.923.328C.929.323.929.321.925.312L.919.302Q.92.299.915.3L.898.31l.006.01q.005.01.012.005v.002L.9.337.898.335Q.906.33.9.323L.895.311l-.02.01C.873.322.873.322.879.334q.006.014.02.012v.002zM.854.298.84.278.841.275q.006.01.012.002L.89.254.887.25Q.88.238.87.244L.869.243.88.235l.028.04-.012.01V.282C.903.276.903.273.897.265L.895.26.858.286Q.85.29.856.297zM.841.242.852.218.827.226zM.838.273.824.256h.001Q.828.26.832.257L.835.253.839.245.824.228.814.23.81.233Q.808.237.811.24L.798.229.8.226Q.801.23.805.23C.808.23.815.228.818.226L.863.211v.001L.84.262q-.004.007 0 .01zM.794.223.774.207.777.205q.008.007.012 0l.03-.033L.814.169C.807.162.804.162.796.168L.795.166l.01-.01.037.033L.832.2H.83C.836.19.835.188.828.18L.824.178.794.21q-.006.005 0 .011zM.784.162.781.159C.784.153.784.143.777.138Q.771.133.765.139C.758.15.78.17.77.183.765.189.756.193.745.185L.736.175H.731L.739.157h.002C.74.164.737.176.747.183Q.756.187.76.18C.764.176.764.173.758.16.755.15.752.143.758.136q.01-.01.02-.003l.009.01h.006zM.71.137v-.01H.708L.707.126H.706V.125H.705L.694.12.686.137Q.681.145.69.147L.689.15.667.14V.136C.675.14.676.139.679.132L.695.098Q.7.091.692.088V.087l.042.02L.73.12.727.118C.73.11.728.108.72.103L.71.098Q.706.097.705.1L.696.117l.011.006Q.716.128.72.119L.722.12l-.01.018zM.665.107V.105L.667.103V.1h.001V.085L.665.084V.083H.664V.08H.662V.078H.66V.076H.658L.655.074C.648.072.636.075.63.095.624.113.63.123.639.126s.02-.001.026-.02M.62.09h.001V.088L.623.086V.085L.624.083.627.08.629.079V.078L.63.077.631.076.633.075.636.073h.001L.64.071.643.07h.012l.002.001c.014.006.024.02.017.039C.668.127.653.134.638.13.623.123.614.108.62.09M.577.112.552.108V.107C.56.107.56.105.562.099L.567.056H.563C.553.053.551.055.548.063H.546L.548.049l.05.007-.003.015H.593Q.595.058.581.058H.576L.57.1Q.568.11.577.111zM.539.05H.534L.533.052H.532v.001L.531.054v.003H.53v.051H.528L.49.059v.034Q.488.105.497.104v.002h-.02V.103q.009.002.009-.01V.054Q.484.049.479.049V.048h.015L.526.09V.061C.527.051.526.051.52.05V.048h.02zM.473.106.426.112V.11Q.435.11.433.102L.428.063q0-.009-.009-.007V.055L.465.049l.002.012H.465Q.463.051.451.054L.439.056q-.003 0-.003.003l.003.02.013-.003q.01 0 .009-.009h.002l.002.02H.463Q.462.077.453.08L.439.082l.003.021c0 .004 0 .004.013.002Q.47.105.473.091h.002zM.41.057H.408v.001H.406V.06H.404v.001H.403v.006l.011.037q.002.009.01.006L.402.118V.116Q.41.115.405.106L.396.068.388.122H.387L.353.082l.009.034q.003.012.01.008l.001.002-.02.006V.13q.01 0 .005-.013L.348.083q0-.01-.01-.005V.076L.355.071l.031.037L.393.06.409.056zM.342.138.32.148C.325.142.324.141.321.135L.304.096.3.098C.29.102.29.104.292.114H.29L.284.102.329.08l.007.013H.334C.328.088.325.087.316.09L.312.092l.019.04q.002.009.01.004zm-.08.008h.001L.266.144V.143h.002V.142h.001V.141H.27V.14h.002V.139h.001V.137h.001L.275.134V.126L.272.124C.267.115.257.121.253.123Q.25.125.252.128zm.05.005L.3.16.268.147.264.149l.009.015q.003.008.01.003l.001.001-.02.013L.263.179Q.27.174.265.168L.245.135Q.241.128.235.133L.233.13.254.12c.007-.005.02-.011.027 0S.28.138.275.14l.027.01q.005.002.009 0zm-.08.027L.207.166.216.19zm.03.002L.246.195.245.194Q.249.19.247.187L.243.184.234.18.217.195l.003.01.002.003Q.226.211.229.207v.001L.217.22V.214L.214.2.201.155h.002L.25.178q.008.005.011 0zM.18.216h.001V.214h.001V.213h.001V.212h.001C.186.21.194.201.185.192s-.018 0-.02.003Q.16.197.163.2zM.148.208.164.19Q.18.176.191.186q.006.008.005.012 0 .007-.009.016L.183.22l.011.01Q.2.238.206.23L.19.248.188.247C.193.24.192.24.188.235L.16.21Q.155.202.15.209zm.039.044-.03.037V.288Q.162.28.155.278L.124.253q-.006-.006-.01 0H.111L.14.217l.01.007v.002Q.14.22.133.231l-.007.01q-.002 0 0 .004l.016.011.009-.01Q.157.238.15.233V.23l.016.013-.001.001Q.159.24.153.248l-.008.01.017.014C.165.274.165.274.173.264.18.254.18.25.176.24h.001zM.13.324h.004V.322L.136.321C.138.315.15.296.127.284A.03.03 0 0 0 .106.282Q.098.284.09.297.088.3.091.302zM.126.34.128.338V.332H.125V.331H.124L.123.33.088.31Q.082.306.08.314L.077.313.09.293Q.105.262.13.276c.01.005.022.02.009.043L.128.342z"/><path fill="#ffd400" d="m.926.418.005.015h.016l-.01.009.005.017-.014-.01-.015.01L.92.443.906.433h.016zm-.853 0 .005.015h.016L.082.441l.006.017-.014-.01L.06.46.065.443.052.433h.016z"/><path fill="#069c42" fill-rule="even-odd" stroke="#000" stroke-width=".004" d="M.297.64A.03.03 0 0 1 .29.655M.26.667Q.243.664.224.675L.23.673.233.671.235.67h.004V.668H.24L.26.667C.256.664.241.66.237.657M.22.62h.003v.001h.001l.001.001h.001v.001h.001v.001h.001v.001H.23v.004l.01.013C.236.64.224.627.215.625H.207M.216.623h.001V.621H.22V.617L.217.613.21.618q0 .004.005.005zM.29.656v.001L.288.659H.287V.66H.286L.285.662v.001H.284v.001H.283v.001Q.28.673.287.673q.002 0 .002-.005V.663L.291.658zM.297.638V.636h.001V.635H.3V.633L.303.632V.631h.001V.63L.305.628.306.627.307.626h.001V.625L.321.62C.325.62.324.618.33.617l-.005.01L.32.64.302.657.294.664Q.302.661.302.668C.302.674.295.673.294.67S.29.674.291.676Q.293.679.3.681L.292.688C.292.686.285.682.282.681L.279.683v.028C.277.725.263.737.258.742L.257.735V.713l-.022.01.003-.018C.238.699.25.692.253.69L.248.689Q.246.685.25.683C.252.68.257.684.256.688L.264.683Q.258.678.266.675q.006 0 .005.006L.277.677.272.674a.01.01 0 0 0-.01 0C.257.676.247.686.241.69a.04.04 0 0 1-.027 0S.219.688.221.682q0-.004.006-.006H.224C.216.676.207.668.204.665c0 0 .006 0 .009-.004C.217.657.233.657.237.657L.232.655Q.229.648.236.647q.006 0 .005.006l.01.005C.25.654.244.64.231.645.22.648.206.642.203.641Q.197.638.193.633C.188.632.181.634.187.63A.03.03 0 0 1 .203.625L.198.622.192.62.18.607A.03.03 0 0 1 .198.603c.006.001.005.002.008.003L.204.602Q.206.597.212.598c.002.001 0 .008 0 .009l.01-.001C.22.603.222.596.21.59.19.583.193.586.18.571L.176.55l.007.006Q.189.562.2.566A.1.1 0 0 1 .22.59L.21.565.2.54A.1.1 0 0 1 .207.512c0 .002.002.001.012.019S.22.554.22.562V.57.559L.223.546C.225.536.237.525.243.52a.05.05 0 0 1-.01.042Q.228.564.23.568v.005Q.22.58.223.597l.003.009L.224.592l.004-.01.006-.01S.23.572.23.568q0-.006.004-.005.004 0 .005.006L.251.556.25.582.232.605Q.23.61.23.617l.007.011L.24.626q0-.004.003-.004.004 0 .006.002 0 .005-.003.008-.001.003.002.01l.008.013L.254.647.251.63A.04.04 0 0 1 .258.604L.27.59c0 .003.006.027.005.033C.272.629.269.64.266.643Q.262.646.26.652.262.647.268.647s.007 0 .002.009L.266.658c0 .006.01.009.01.009C.278.667.28.66.28.66.277.663.27.663.27.658q0-.006.01-.004C.279.65.274.645.275.636c0-.008.008-.019.01-.022L.297.6l.001.008C.3.61.3.628.298.632zm.035.087q.013.022.01.045C.34.78.348.783.352.784c.002 0 .008.004.01.006Q.363.794.364.788a.2.2 0 0 0-.01-.042.1.1 0 0 0-.017-.03Q.334.726.332.727zm-.09-.11h.002V.613h.001V.612h.001V.61h.001A.005.005 0 0 0 .242.604.005.005 0 0 0 .236.61q0 .005.006.005zm-.03.043h.002V.656h.002V.655h.001V.652L.214.647.209.651q0 .005.005.006zm.065.025L.276.685H.274v.001L.272.687.271.689.27.69v.002L.268.694.267.696v.002H.266V.7H.265v.002L.263.703l-.008.01"/><path fill="#bcbdbf" stroke="#000" stroke-width=".004" d="M.817.589.734.681m.03-.088L.784.57.779.6.773.593zm.021-.01.02-.016-.009.025L.792.585zM.728.617.74.589l.003.03L.736.614zM.736.614.724.675m.01.009L.78.655M.74.69.796.637M.789.634.814.619.8.645.796.637ZM.782.617.733.68M.761.574.777.55.775.58.77.574zM.744.596.759.571V.6L.751.595zm.05-.044L.814.53.807.56.802.553zm.014.01L.83.543l-.008.03-.006-.01zM.81.586.834.568.822.596.818.587zm.003.017L.834.587.823.611.82.604zM.77.575.73.677M.801.553.73.68m0 0L.815.564m-.04.05.02-.016-.009.025L.783.616zm.018.003.02-.016-.01.024L.8.618zm-.02.034L.798.64.781.664.779.655zm-.098.09L.68.749.667.772.663.76.652.762l.015-.02zm.01 0L.69.748.68.772.676.762l-.01.002.013-.022zm.022.013L.712.76.707.785.7.776.69.781.7.757zm-.032.01L.67.773h.01L.69.755h.002L.688.749l-.01.023zM.698.752.702.76.694.784.69.774.68.778.69.755zM.666.74l.001.01-.016.02L.65.758H.64L.656.74zm0-.011L.65.74m.006.008L.695.716M.666.728v.009L.664.74H.657L.645.75H.644L.645.747.635.745.657.727l.009.001.028-.02m.018.025L.705.766M.707.729.692.77M.698.72l-.02.035M.674.741.697.717"/><path fill="#f2c007" stroke="#000" stroke-width=".004" d="M.33.704H.323v.001H.322L.321.707.32.708v.001L.305.726C.304.73.308.739.318.736S.332.723.335.719L.337.707M.32.694H.316V.692H.312L.295.709c0 .002-.004.008 0 .011.002.003.008.004.01.003M.313.68H.31V.677H.304V.68H.301L.3.682.285.697C.283.705.29.711.296.71M.311.678q0-.003.004-.006L.324.668m.044.04H.337M.317.693Q.32.69.318.686m.396.005Q.71.688.712.685C.707.692.72.685.737.707A.008.008 0 0 0 .745.696L.731.68V.679H.73L.728.677H.727V.676H.725V.675H.717v.001-.002L.716.673V.672L.715.671V.67H.713V.668H.712V.667H.711V.666H.708V.665H.7v.003H.698C.686.674.694.69.696.69H.67C.648.689.654.698.666.707L.695.706v.009h.001v.001C.699.72.703.73.713.733S.727.727.726.723C.726.719.718.713.712.707Q.705.699.702.702C.706.696.716.713.725.72c.002.001.008 0 .01-.003.003-.003 0-.009 0-.01L.719.691H.71M.361.692.334.689C.341.675.335.673.333.67.33.667.32.664.312.678.298.678.285.695.285.702.286.71.292.71.295.71Q.29.721.305.722c0 .008.007.016.015.013A.04.04 0 0 0 .335.719Q.338.71.337.709V.708h.03c0-.002.007-.015.014-.015C.37.695.36.693.36.691z"/><path stroke="#000" stroke-width=".004" d="M.697.683v.001h.001v.001L.7.687v.001h.001v.001L.703.682.705.677q0-.002-.003-.005Q.697.67.696.677zm-.003.02V.7L.696.698V.696L.7.703l.004.002v.006Q.7.715.696.709zm0 0V.7L.696.698V.696L.7.703l.004.002v.006Q.7.715.696.709zM.7.693H.697V.691H.7V.69h.01l.001.001h.001v.001q.004.009-.004.01-.002 0-.004-.004zM.716.686h.001L.719.685.72.684V.68C.714.671.703.681.703.681s.006 0 .008.003zm0 0h.001L.719.685.72.684V.68C.714.671.703.681.703.681s.006 0 .008.003zM.322.69h.003V.688h.001L.328.687.329.686.33.685V.683h.001V.681h.001V.68C.332.674.325.675.324.676v.005zm.013.022H.33Q.324.712.328.708L.334.699q.003.004.002.01zM.333.694h.001-.001V.692H.321L.32.695v.001C.315.701.321.704.322.703Q.325.703.327.7zM.316.687v.001H.31Q.306.685.31.68C.315.676.32.68.323.684s-.001 0-.006.001zm0 0v.001H.31Q.306.685.31.68C.315.676.32.68.323.684s-.001 0-.006.001z"/><path fill="#bcbdbf" d="M.478.704H.476L.475.706.474.707.471.709V.71H.47L.469.712H.468L.465.715H.463C.459.72.45.728.455.726h.014l.004.001-.006.01L.464.74.469.737l.01-.004L.486.73.48.742.476.75C.483.746.481.744.486.744L.493.74h.002L.491.756V.76L.498.751.506.748h.002L.506.76C.51.766.52.765.524.76V.75C.527.752.537.753.54.758L.535.742q.01.003.01.006.006.004.008.003L.548.736.562.74q.005.003.006.001L.562.732C.557.724.558.727.558.727h.013L.578.73.576.726C.573.721.556.706.554.704L.544.703q.008.01.004.012C.545.718.538.713.538.713Q.542.725.537.73C.533.73.522.717.522.715c0 .008 0 .018-.006.02Q.51.736.51.728L.508.72Q.499.73.494.728.489.723.491.718L.496.71Q.487.72.484.714.48.71.484.706L.486.7z"/><path fill="none" stroke="#000" stroke-width=".004" d="M.509.732v.006L.507.74v.007L.506.749v.008L.505.762V.77L.504.773v.024c0 .01.004.036.01.037C.52.833.524.806.524.796A.4.4 0 0 0 .522.73M.504.723.502.727.5.73.498.735.497.739.495.743v.004L.492.75v.005L.49.759v.008L.488.77v.004L.487.778V.78L.486.785v.032C.49.835.503.795.505.792M.49.722.488.725.487.728.485.731.483.734.482.738.48.74v.005L.477.748V.75L.474.755v.004L.473.762v.004L.47.769v.007L.469.779v.003L.467.785v.003L.466.79v.003L.465.795V.8L.464.801v.003c0 .017.02-.024.023-.027M.483.716.481.718.478.721.476.724.473.727.471.73.47.733.467.736.465.739.463.74.462.745.46.748V.75L.457.753.456.756.454.76v.003L.451.765v.002L.45.77v.002L.447.774V.78L.445.782v.006H.443C.439.805.468.77.471.768M.477.704.474.706.472.708.469.71.466.712.464.715.462.717.459.72.457.723.455.725.452.728.45.731.448.734.446.736.444.74H.443L.44.744v.003L.438.749.437.75.435.754.434.756.433.758.432.76H.43v.004L.428.765v.001H.427v.001C.42.783.454.753.458.75M.526.722l.002.004L.53.73l.002.004.002.004v.004l.002.004.001.004.001.004.001.004.001.004.001.004v.003l.001.004v.004L.544.78v.01l.001.003v.023C.541.834.527.794.525.79M.54.722l.002.002.001.003.002.003.002.003.002.004L.55.74l.001.004.002.003.001.003.001.004.001.004.001.003.001.004.001.003.001.003v.004l.002.003v.006l.001.003V.79l.001.002v.002l.001.002v.007h.001C.566.82.546.78.543.777M.55.717.552.72l.003.003.002.003.002.002.002.004.002.003.002.002.002.003.002.004.001.003.002.002.001.003.002.003.001.003.001.003.001.003.001.002L.58.77h.001v.002l.002.003v.003L.584.78l.001.002v.002l.001.001v.001C.591.803.563.77.56.767M.554.704l.004.003.002.002.003.002.003.003.002.002.003.003.002.002.003.003.002.002L.58.73h.002l.002.003.002.002.001.003L.59.74l.002.003.001.002.001.002.002.002v.002l.002.002v.002L.6.758v.003l.002.001v.003C.61.78.578.753.573.75"/><path fill="#81572e" d="M.588.524h.003v.001h.003l.001.001h.013L.61.524.612.523h.001L.614.521h.001L.616.52h.001L.618.518A.06.06 0 0 0 .635.48c0-.011 0-.013-.008-.021C.62.451.617.449.616.441Q.613.431.633.412T.681.37A.2.2 0 0 1 .728.337L.765.318A.1.1 0 0 1 .8.31Q.81.309.803.315l-.03.023L.76.345q.014 0 .016.005C.777.354.772.364.768.367L.744.379C.75.381.76.381.76.386q0 .009-.009.012l-.02.01q.012 0 .013.005 0 .007-.01.013C.74.428.747.43.746.435Q.745.444.736.446q.011.005.01.013 0 .005-.008.007.01.005.009.011C.745.482.737.484.733.485q.012.007.01.013c0 .005-.011.005-.016.005.005.006.01.014.009.016C.734.522.726.525.722.524q.008.01.005.015Q.719.543.71.54H.708s.011.01.007.018C.713.56.705.559.7.557Q.706.57.702.574C.7.575.69.573.688.57q.005.013 0 .015C.685.588.675.586.672.582q.004.013 0 .015C.67.599.66.6.654.596Q.658.605.652.608T.637.604Q.638.617.633.62C.628.62.62.615.617.612q0 .013-.005.013C.606.627.6.62.598.615Q.594.627.592.628.589.626.589.624zm-.15.002H.437L.434.528H.433L.43.529H.418L.416.526.415.525H.414L.413.524H.41V.521H.409A.06.06 0 0 1 .39.483C.39.472.39.47.397.462S.408.452.41.444C.411.434.4.422.391.412L.346.37A.3.3 0 0 0 .297.34L.261.321a.1.1 0 0 0-.037-.01q-.006 0 .002.01L.254.34l.018.011C.262.35.252.348.252.352.25.356.254.366.258.37L.28.384C.273.385.264.383.265.388q.001.009.008.013l.02.01q-.011 0-.014.006Q.28.424.292.43.278.432.278.439c0 .005.008.008.013.01C.285.45.277.455.278.46q.003.005.01.007C.284.47.278.476.279.48s.01.007.016.007Q.282.494.283.5c.001.005.01.007.015.007C.294.512.289.519.29.52.292.523.3.526.303.525Q.297.536.3.54c.004.003.012.002.016 0L.313.545S.307.55.313.56c0 .003.01.002.013.001Q.32.571.325.575c.002.002.012 0 .014-.002Q.334.586.34.588c.002.003.01 0 .015-.004Q.35.597.355.6C.356.6.367.602.372.598Q.369.607.375.61.38.616.39.606.389.62.394.621C.4.623.406.617.41.614c.002.01.004.01.007.012S.428.621.43.617q.003.01.008.012V.626zm.024.16H.445L.443.684H.442V.683H.441L.44.682C.437.677.439.661.438.652v-.02Q.421.635.415.642L.414.643Q.414.641.4.65L.39.662.375.675Q.373.681.374.682.364.687.363.689.36.693.367.694H.38Q.37.699.368.704C.367.706.365.708.371.71s.02.005.022.003L.398.709Q.397.71.403.711c.005 0 .015 0 .019-.004A.04.04 0 0 0 .442.7M.59.631h.008v.001h.005v.001h.002l.001.001h.002l.001.001H.61v.002h.001l.007.006S.621.64.628.648L.64.66a.04.04 0 0 1 .017.02l.014.01-.007.002H.65q.01.004.014.012C.665.71.662.708.656.71L.642.712.634.709h-.01L.611.707Q.598.705.589.701L.572.69.566.686q.017.001.02-.004C.59.678.59.662.59.652zM.55.686v.001L.551.69h.001l.001.002h.001v.002h.001v.001l.001.001v.001h.001v.005c-.001.003-.01.003-.013 0q.007.01.004.015Q.542.719.538.714.54.724.536.728C.535.73.525.722.52.71Q.525.727.516.734.51.735.51.729L.506.72Q.5.732.494.726.489.719.494.714L.498.707Q.488.718.486.714.481.71.486.704L.488.697C.484.703.476.704.475.701Q.473.697.475.693L.483.685h.025s.006 0 .006.007C.517.688.516.686.521.686zM.49.468.488.47.486.472H.484v.001H.482v.001L.481.476H.48V.48H.478L.477.485.473.49.466.496.465.5.46.505Q.456.51.456.517h.122V.513L.569.488Q.566.489.564.484L.56.476.558.472C.557.48.553.48.55.48.548.48.543.47.542.468Q.54.48.536.483.531.485.527.478L.524.468Q.522.478.519.482.514.483.512.477.509.471.51.47.5.478.494.478.49.475.491.473z"/><path fill="none" stroke="#000" stroke-width=".004" d="M.494.696H.492v.001H.491v.001H.49V.7H.488v.003H.486L.484.706v.001H.483V.71H.482v.004C.49.72.498.707.499.707S.485.725.495.727C.501.728.507.72.508.718M.483.686H.481L.48.688V.69H.477L.476.692.475.694.474.695v.002H.473v.004h.001q.008.007.02-.006M.497.687V.69L.495.692v.013C.5.71.507.706.507.703M.51.707V.71L.507.712V.73H.51v.002h.001v.001h.004C.528.733.52.706.52.706m.03-.02v.003L.552.69h.001l.001.002.001.001.001.001v.001h.001v.002l.001.001V.7Q.553.707.542.7M.547.685V.69h.001v.006H.546v.001C.545.698.532.69.537.693M.536.691v.001h.001v.001h.001v.002H.54v.001h.001v.002h.001L.543.7l.001.002.001.001.001.002.001.002.001.001v.001L.55.71v.006C.547.72.54.716.537.714M.53.686v.001h.001v.001h.001V.69h.003l.001.001v.001h.001v.001l.001.001v.007H.535c-.004.004-.007 0-.007 0M.523.695v.002h.001v.001h.001v.001h.001L.527.7h.001v.001L.53.703v.002l.002.001v.001L.535.71l.001.002.001.001v.001l.002.002V.72H.54v.005L.537.727C.527.734.52.71.52.706M.49.511l.003.005M.468.507q-.002.004 0 .01M.487.51Q.484.516.482.516m.01-.049L.49.469V.47H.487L.486.472.484.473v.001H.483L.482.476.481.477H.48V.48H.478v.003l.001.01C.482.493.496.484.497.478c0 .005 0 .016.005.02S.515.49.515.485c.002.004.002.013.01.017.008.003.01-.011.01-.015q.004.01.012.011C.552.5.554.488.554.485q.005.009.011.01C.57.499.57.492.57.489M.51.518h.003V.515h.003V.514C.504.514.504.504.503.5c0 .002-.009.015-.015.012S.481.498.48.492C.476.497.468.516.465.505S.48.485.478.484m.036.03H.52V.511L.522.51h.001V.508L.524.507V.506L.525.505V.503h.001Q.53.512.537.515C.541.515.547.503.547.5q.007.012.014.014C.566.515.566.499.567.496M.569.491v.001H.57v.002h.001v.001h.001v.002h.001V.5h.001l.002.003v.002h.001v.002l.001.001V.51L.58.511v.005C.577.52.568.511.566.508M.464.5.456.514M.59.592v.003l.001.001v.002L.593.6v.001l.001.001v.002l.001.002v.002L.597.61v.002l.001.001v.001l.001.002L.6.617c.01.015.016.01.019-.005m.04-.064L.66.55h.002l.001.003.003.001.002.002v.001L.67.558.673.56l.002.001.016.01q.009.005.013 0C.706.57.703.562.702.558M.678.51h.003v.001h.001l.001.001h.001v.001h.001v.001h.001v.002h.001v.002Q.68.523.67.52L.654.516m.02.006h.001l.001.001.001.001.001.001.001.001.001.001v.001h.001V.53h.002v.003Q.679.54.665.534L.648.526m.02.01L.67.537l.001.001.001.001.001.001h.002l.002.002.002.002.002.002h.001l.001.001h.001L.686.55l.016.008q.01.004.014 0C.718.554.714.543.711.539M.677.522.68.524h.001l.002.001v.001h.002l.001.002.003.001h.002v.002h.002l.001.001h.002l.001.001.017.007q.01.002.014-.002C.73.535.727.526.724.523M.682.509h.002V.51h.002v.001h.001L.69.512l.002.001.001.001h.002l.002.001.001.001H.7v.002h.001l.001.001h.002l.019.005q.01 0 .013-.004C.74.515.731.505.727.503M.616.572v.003l.001.001v.005H.614v.001H.613Q.607.585.599.573.59.562.589.557m.012.02s.005.02-.01.01M.588.523H.59v.001h.003l.001.001h.013L.608.524h.004L.614.522h.001L.616.52h.002L.619.518H.62L.622.517V.516L.625.514V.512h.001V.51C.637.494.64.473.634.465S.607.444.62.427a.5.5 0 0 1 .076-.07.3.3 0 0 1 .088-.045C.793.31.808.307.805.312.796.327.76.343.74.36L.667.4q0 .009-.017.016C.657.414.663.421.644.431.653.429.656.437.647.444c.005 0 .01.005.005.012.003.001.008.006.003.011.003.002.007.007 0 .01.006.002.005.008 0 .01.009.001.005.01 0 .011Q.66.505.653.51c.002.004 0 .01-.005.009C.648.52.65.529.64.528c0 .003-.001.01-.008.01Q.63.546.622.543.617.553.608.547C.607.55.599.557.594.55L.589.555M.703.379h.003V.377H.72V.38C.725.382.715.393.712.395L.655.422m.04-.018h.002L.699.402H.71v.001C.713.41.705.417.7.419L.653.435M.688.423h.015v.001h.001Q.707.43.694.438L.65.446M.686.44h.007v.001h.003v.001h.002v.002c0 .003-.005.01-.016.012H.653M.686.455H.69l.001.001h.002v.001h.001l.001.001V.46Q.693.468.68.469L.656.467m.03 0 .001.001h.004V.47h.004v.002Q.693.48.68.482L.658.479M.683.48h.002l.001.001h.001l.001.001H.69v.001h.002v.001h.001v.001l.001.001V.49Q.69.495.677.494L.66.49m.02.003h.001l.001.001h.001l.001.001h.001v.001h.001l.001.001H.69V.5h.001v.003Q.69.51.679.508.662.506.658.503m.01.033v.001L.67.539v.003h.001v.004l.001.001v.002Q.664.553.652.546L.64.535m.018.013V.55H.66v.002l.001.001V.56Q.656.563.644.555L.63.543m.014.012v.001h.001v.002h.001V.56l.001.001v.007Q.64.573.629.564L.617.55m.012.015L.63.566v.002h.001v.01Q.622.58.613.571L.602.553m0 .027v.001l.001.001v.002h.001v.001l.001.001v.002L.607.59l.001.002.001.002.002.002v.002L.612.6l.001.001v.001l.001.001v.001l.001.001.001.002.001.001c.004.006.01.012.017.01C.64.619.638.606.637.605M.632.567l.001.001V.57h.003v.002h.002v.002h.001L.64.577v.001l.002.001.002.003.002.002v.001l.001.001.001.001.001.001.001.001V.59h.002v.001l.001.001.001.001h.001v.001C.659.598.659.609.652.61.642.612.635.6.631.596L.618.574m.037.02v.001h.002v.001H.66v.001h.002l.001.001h.009C.677.596.674.586.673.583M.646.557l.001.001V.56H.65v.001l.002.002.002.002.002.002h.001V.57h.002v.002H.66v.002l.016.011Q.684.59.69.586C.692.584.69.575.689.571M.683.494h.001v.001h.002l.002.001H.69l.001.001h.004l.002.001h.002L.7.5h.01l.021.003q.01 0 .013-.006c0-.003-.006-.01-.01-.012M.685.48h.006l.002.001h.006L.7.484h.003l.002.001h.008l.001.001h.023Q.746.48.747.475C.75.473.744.467.739.466m-.05.001h.019L.71.469h.01L.738.466Q.747.463.748.458C.75.454.743.448.739.448m-.05.006H.7L.702.452h.004L.71.451h.004V.45H.72L.74.445A.02.02 0 0 0 .749.433C.749.429.739.427.735.426M.689.44h.002V.438h.004V.437h.003L.699.436h.004L.705.435h.002L.71.432h.005V.431h.002L.72.43h.002Q.732.427.739.423C.743.421.747.415.745.413Q.741.407.733.407M.69.423h.001L.693.421h.003V.42h.006L.704.418h.002L.709.416h.003L.715.415h.002L.718.413H.72L.722.412h.001L.724.411h.002L.727.41H.73L.731.408h.001l.019-.01C.756.398.762.389.76.386S.75.38.746.38M.71.395h.003L.715.393h.001L.717.392H.72V.391L.722.39h.003L.726.389.729.388.732.386.735.385h.001L.737.382h.005V.38h.004V.378h.001L.748.377.75.376.77.365Q.777.356.777.35C.777.347.767.344.76.345M.598.616v.005H.596v.001L.595.624v.001H.594Q.59.627.59.625m-.236-.1H.352L.351.526v.001H.35v.002H.348V.53H.347v.001L.346.533v.004q.004.006.017 0l.016-.01M.36.537v.001L.358.54H.357v.002H.356v.003H.355V.55Q.363.555.374.548.386.54.388.537M.37.55H.368v.001L.367.553v.002H.366v.007Q.373.564.384.557L.397.545M.384.557.382.559V.56H.381v.002L.38.563V.57Q.388.573.4.565L.41.551M.4.565v.001H.397v.002L.396.57v.009q.01.003.019-.006L.426.554m.012.04v.002L.436.598V.6H.435v.002L.434.604v.002L.433.607V.61L.431.612v.002H.43v.005L.428.62Q.422.63.419.627C.41.627.41.617.41.613M.427.58.425.583v.001H.424v.001L.423.586V.59L.421.591v.002L.42.595.419.598.417.6v.001L.415.603v.001L.414.605.413.608v.001L.412.61C.408.615.401.622.394.62.39.62.391.607.391.606M.396.568V.57H.394v.002H.393v.001L.391.574.39.575v.001L.389.577V.58H.386v.002L.383.583v.002L.382.587H.38V.59L.377.592v.002H.375v.001L.373.597C.37.599.37.61.376.613c.01.002.016-.01.02-.014L.41.576m-.037.02v.001H.37v.001H.368V.6H.357C.352.598.354.588.355.585M.382.559.38.56v.001L.377.564.375.566v.001L.373.569.37.572v.002H.367v.001L.351.586Q.343.591.34.588C.336.586.337.577.339.573m.1-.048H.437v.002H.436L.433.528H.418V.525H.416L.415.524H.413L.41.521.408.52V.519H.405V.516H.404V.515H.402V.512H.401C.392.495.387.475.394.467S.419.445.406.429a.36.36 0 0 0-.18-.117C.22.31.223.32.227.323L.289.36C.294.364.354.396.36.403q0 .007.017.015C.369.416.364.423.383.433Q.367.432.38.446C.375.446.37.451.375.458.372.458.367.464.372.469.37.47.365.476.372.479Q.364.484.372.49C.363.49.367.498.371.5.37.504.368.51.375.511q-.003.01.005.01c0 .002-.002.01.006.008 0 .004.002.011.009.01q.001.009.01.006Q.41.554.42.549C.42.55.429.557.434.55l.004.005M.323.38H.307L.305.382C.302.39.312.396.316.399.317.4.37.422.37.424M.331.406H.328L.327.404h-.01v.001H.316C.313.412.32.419.326.422l.047.016M.34.425H.323v.001H.322Q.32.433.332.44c.01.003.043.007.043.007M.341.442H.333v.001H.33v.001L.328.446v.001c0 .003.005.01.016.012h.028M.341.457H.336v.001H.333V.46H.331v.002Q.335.47.348.47L.37.469m-.03 0V.47H.336v.002H.333v.001H.332v.001H.331v.001q.003.008.016.009L.37.48M.344.483H.341v.001H.34L.338.486H.337v.001H.335v.001H.334V.49H.333v.002Q.336.498.35.497L.366.493m-.02.003H.344v.001H.342L.341.499V.5H.338L.337.502.336.503v.001H.335v.002Q.339.511.35.51L.37.504M.348.51.346.512H.345v.001H.344v.001H.343v.001H.342v.001H.341v.002H.34V.52q.005.006.017.002L.373.517M.37.55H.367v.002H.365L.364.555.362.556.36.558v.001H.357v.002H.355v.001L.353.563l-.016.01Q.33.577.325.574C.322.572.324.564.326.56M.36.538.356.54.354.541.353.543.351.544.35.546H.348L.347.549H.345V.55H.342v.002L.325.559q-.01.004-.014 0C.309.556.312.546.315.543M.35.524.349.526H.346v.001L.343.528H.342V.53H.338L.337.532H.336L.334.534v.001H.331L.33.537.313.543C.308.544.301.543.3.54.296.535.305.526.306.525m.04-.014H.342v.001H.341L.34.514H.337L.336.516H.332L.331.519H.328L.326.52H.323v.001Q.312.525.305.525C.3.526.292.524.29.521.29.518.296.51.3.506m.044-.01L.342.498.34.499H.338V.5H.33v.001H.325L.323.503H.318L.317.504.294.506Q.285.506.283.5C.28.497.289.49.293.487m.05-.004H.336L.335.485H.33L.328.486H.323L.321.487H.318L.315.488H.29Q.28.485.28.479c0-.004.006-.01.01-.01m.05 0H.327L.324.47H.288Q.28.465.28.46C.277.457.286.45.29.45m.048.006H.327L.325.454H.321L.318.453H.313L.312.452H.307L.287.447Q.277.443.28.437C.28.433.289.429.292.428m.046.014H.334V.44H.328L.327.438H.322L.319.436H.315L.313.434H.31V.433H.308L.306.432H.305L.289.425Q.279.422.279.416C.281.414.29.412.294.412m.042.014H.333V.423H.33V.422H.327L.326.421H.324L.323.42H.32L.318.418H.315L.31.416H.307L.305.415H.304L.302.414H.301L.299.413H.296V.411H.294V.41L.276.402Q.264.398.265.388c0-.004.01-.006.017-.006m.035.016H.314V.396H.312L.31.395.308.394H.305L.304.392H.3V.39L.296.389.293.388.29.386H.287L.285.383H.28V.381H.278V.38H.277L.26.37A.03.03 0 0 1 .25.353C.252.348.267.35.271.35M.43.576v.002H.427v.003L.426.583V.59h.001c.005.003.004.005.01-.004M.414.572v.001H.412v.003H.411v.009Q.42.588.43.577.436.561.44.555m-.01.06a.02.02 0 0 0 .007.013m.17.02H.61V.65h.004l.002.001.001.001h.002v.001H.62v.001h.002v.001h.001l.001.001.001.001.007.01v.005H.627L.62.669M.59.632h.013l.002.001h.002v.001H.61v.001h.002v.001h.001v.001h.001l.001.001h.001V.64h.002v.001q.005.006 0 .006L.603.646q-.002 0 .002.002Q.61.65.614.656.617.659.612.659.605.661.6.66C.596.658.599.659.6.66c.004.002.01.007.01.01l.002.006Q.611.679.605.677L.596.676a.02.02 0 0 1 .01.01q.002.005 0 .007H.598Q.588.69.583.685M.618.641H.62v.002h.001l.001.001h.002v.001h.001l.001.001v.001h.002v.001H.63V.65h.001L.64.661C.642.666.64.663.637.663L.631.662M.609.66H.61l.001.001.001.001.001.001h.001l.001.002.002.001v.001l.001.001H.62V.67h.001v.001l.006.01v.006H.622L.616.686M.608.678H.61V.68h.001l.002.002h.001v.002h.001v.001h.001v.001l.001.001.003.009Q.619.7.615.7.606.698.605.696L.61.703Q.613.708.606.706C.593.703.594.702.587.699L.568.687m.06-.026h.003v.001h.001v.001h.002v.001h.001l.002.002.002.002H.64V.67h.001v.002h.001l.001.001.001.002.001.001v.001c.002.005 0 .003 0 .005L.639.68S.62.673.625.676M.64.661h.002v.001h.001l.001.001h.001v.001h.001l.002.001v.001H.65v.002h.001V.67h.002v.001h.001v.002h.001L.657.68Q.657.682.65.678L.646.676M.644.682l.001.002h.001v.001l.001.001v.001l.001.001V.69H.65v.002q0 .005-.005.003L.637.693.627.687C.629.69.64.697.642.701Q.645.705.64.705L.626.701.62.697M.626.7h.001l.001.001H.63v.001l.001.001.001.001h.001v.001Q.637.71.631.71C.626.71.614.71.61.705M.656.68h.005l.001.001.001.001h.001v.001l.002.001v.001h.002v.001q.005.004 0 .005L.655.692H.65m0 0h.003v.001h.001l.001.001h.001v.001h.001l.001.001.001.001H.66v.001L.662.7h.002v.001l.001.001Q.667.708.66.707L.642.701m.022.006H.662v.001H.661L.66.71H.654L.652.712H.645L.635.71M.546.686V.69h.001v.006H.546v.001C.545.698.532.69.537.693M.548.686H.55v.002L.552.69h.001l.001.002.001.001.001.001v.001h.001v.002l.001.001V.7Q.553.707.542.7M.508.686v.017H.51v.001l.001.001h.003q.011 0 .008-.017m.002.007v.002h.001v.001h.001v.001h.001V.7h.001v.001L.53.703v.002l.002.001v.001L.535.71l.001.002.001.001v.001l.002.002V.72H.54v.005L.537.727C.527.734.52.71.52.706m.01-.02h.001v.001h.001v.001h.001V.69h.002l.001.001v.001h.001v.001l.001.001v.007H.535c-.004.004-.007 0-.007 0m.007-.01v.001h.001v.001h.001v.002H.54v.001h.001v.002h.001L.543.7l.001.002.001.001.001.002.001.002.001.001v.001L.55.71v.006C.547.72.54.716.537.714M.509.707V.71L.507.712V.73H.51v.002h.001v.001h.004C.528.733.52.706.52.706M.497.687V.69L.495.692v.013C.5.71.507.706.507.703M.484.686H.481L.48.688V.69H.477L.476.692.475.694.474.695v.002H.473v.004h.001q.008.007.02-.006m0 .002H.492v.001H.491v.001H.49V.7H.488v.003H.486L.484.706v.001H.483V.71H.482v.004C.49.72.498.707.499.707S.485.725.495.727C.501.728.507.72.508.718M.398.71Q.397.712.388.714m.002 0H.385V.712H.377V.711H.374L.372.71H.37L.368.708M.421.661H.42v.001L.418.665.417.666v.002H.414V.67H.412L.411.672.41.673Q.405.679.405.683q-.002.005 0 .006 0 .003.004.001.004 0 .007-.003M.438.634H.425v.002H.423L.422.637.42.638.417.639V.64H.415v.001H.414v.001q-.006.006 0 .006L.429.647.427.65Q.423.65.418.657.415.66.42.66h.012c.004 0 .001 0 0 .001-.003.002-.009.007-.01.01L.42.677Q.42.68.425.68L.431.679.425.687Q.423.693.426.694h.01q.002 0 .01-.007M.415.643H.41v.002H.407v.002H.405v.001H.404V.65H.4L.391.662C.39.667.392.665.395.665L.4.663m.02-.01H.414v.002H.411v.001H.41v.001H.408v.001H.407v.001H.406L.4.669v.005h.006L.412.67m.01.008V.68L.42.682v.001L.418.684.417.685v.001H.415v.001H.414v.001l-.002.01Q.414.703.418.7C.421.7.434.691.428.696L.422.704Q.42.708.426.707C.44.705.437.704.444.7L.463.686M.403.662H.401v.001H.4v.002H.399L.397.666.396.667H.395v.001L.392.669.391.67.39.672v.002H.388v.001H.387v.001H.386v.002c-.002.004 0 .002 0 .004q.001.002.007 0L.406.68M.392.662H.39v.001H.388v.001H.387L.386.666H.384v.001L.383.668.382.669V.67H.38v.001H.379v.001L.377.674v.001L.376.676C.374.682.374.68.375.681q0 .003.007 0Q.385.678.387.678m.001.006L.386.686.385.687.384.688v.001L.383.69v.002H.382v.001L.381.694q0 .003.006.002L.395.694c.003 0 .013-.007.01-.006L.39.702Q.387.708.392.707L.406.702Q.41.699.413.699M.406.702H.404v.001H.403v.001L.401.706H.4v.002H.398Q.395.711.401.711c.005.001.017 0 .021-.004M.375.68H.374L.372.683.37.684.368.685v.001H.365v.001L.364.688q-.005.004 0 .006h.015M.372.7V.698h.001L.375.697h.001L.377.696h.001V.695h.001L.38.694V.693h.002a.03.03 0 0 0-.014.01Q.365.709.372.708A.03.03 0 0 0 .39.702"/><path fill="#fd0" d="M.465.432v.014C.463.452.456.456.454.458L.446.46h-.01Q.433.458.431.451.432.444.426.438L.415.428C.413.424.41.418.417.417Q.426.414.427.411L.431.408C.421.39.404.382.387.37A.2.2 0 0 0 .324.349Q.316.348.315.34V.325L.295.31Q.29.3.295.296L.302.285l.005-.02Q.309.257.313.257c.005-.002.014.001.014.01 0 .005-.007.016-.01.021l.007.005q.004 0 .022.008a.014.014 0 0 1 .008.016L.35.33a.2.2 0 0 1 .072.034c.015.013.023.018.032.031Q.462.41.454.41l-.01.005Q.441.418.44.422q0 .004-.005.004l.008.007q.003.005.002.012.002.007.006.004V.434c0-.007.006-.01.01-.012 0 0 0 .008.004.01m.093.014v.002H.556v.005q.002.008 0 .011v.008l.002.002.004.01s0 .005.008.006Q.583.49.588.486C.59.483.591.475.591.472S.596.462.599.46C.601.458.609.452.609.45Q.61.449.608.445.604.441.608.43.61.418.606.415t-.009 0Q.594.417.591.412C.59.41.588.407.593.402L.625.377A.2.2 0 0 1 .667.355l.034-.01.006-.002q.002 0 0-.005V.324L.714.319.727.307q.006-.005 0-.014C.723.286.722.286.722.279a.04.04 0 0 0-.008-.02C.71.256.7.259.7.262S.695.268.699.272.706.286.705.29L.703.291.69.297C.687.298.674.3.671.307.668.315.669.314.67.317l.002.01v.001L.663.33.636.341.607.36.581.382C.575.387.574.389.57.394.565.398.56.403.563.404l.01.007.006.01c.002.002.006.007.01.004Q.592.422.59.423l.005.001L.6.428V.43L.59.44.58.46.576.474v.008L.573.47.56.451zM.493.426H.487L.486.424H.48v.02C.479.446.472.457.472.463c0 .005.001.014.005.018L.482.475.486.471Q.486.46.49.452L.495.436z"/><path fill="none" stroke="#000" stroke-width=".004" d="M.354.308V.32L.35.33M.305.27v.002L.303.275v.004H.302v.004L.294.296Q.292.303.295.31C.3.314.302.321.316.325m.01-.057-.009.02m.144.134H.458v.001H.456v.001H.455v.001H.454v.001L.453.428v.001L.452.43v.005c0 .009 0 .022-.006.024C.437.462.431.455.431.448.431.437.423.437.419.433.417.431.406.419.42.417q.007.001.01.006c0 .002.009.006.01 0Q.446.41.454.41c.004 0 .009-.006 0-.017A.2.2 0 0 0 .39.343a.3.3 0 0 0-.07-.02c-.007 0 0-.008.003-.008.005 0 .02.003.024.002C.349.317.36.31.35.304S.32.292.317.289C.313.285.3.279.307.264.313.25.327.26.327.265S.321.278.315.271L.31.282m.007.04H.315v.015q0 .009.011.013a.2.2 0 0 1 .058.018c.012.007.03.02.037.028.006.007.016.017.016.022Q.44.425.434.426m.002 0h.001v.001h.001v.001H.44V.43h.002v.002h.001v.001h.001v.002h.001v.011Q.448.45.453.449m-.02-.04H.43V.41H.428v.001H.427v.001H.426v.001H.425v.001H.424L.416.419m.05.01v.015H.464v.004L.463.45q0 .004-.017.01M.713.28V.278H.711V.275H.71V.27C.708.274.693.274.698.264c.004-.009.016-.01.02 0C.72.273.707.287.7.292.69.298.676.3.672.305c-.003.003-.01.013.01.01C.701.312.706.308.706.316S.691.322.68.326a.2.2 0 0 0-.05.019.3.3 0 0 0-.054.042C.57.395.556.402.566.407c.012.006.011.016.018.018m.133-.16.001.001v.002H.72v.007h.001V.28q.002.01.008.014Q.732.301.726.31L.707.324m0-.008v.012Q.705.335.708.34C.711.344.697.346.691.348a.2.2 0 0 0-.051.02.3.3 0 0 0-.054.041C.584.412.579.42.584.425.588.43.594.415.6.414.608.412.612.42.606.426.599.432.58.445.578.462.575.48.575.474.577.482s-.012.01-.015 0S.558.473.558.473M.67.315q.005.008.003.013M.699.272c.003.004.007.015.006.017M.59.423C.596.423.601.43.601.43M.591.405c-.002.002 0 .011.007.01M.61.42v.006L.607.429V.43H.606v.002L.605.435v.008l.001.001v.001c.006.008 0 .007-.004.012S.589.466.59.478.58.489.572.49M.577.483a.2.2 0 0 0-.02-.037m-.08.036V.48H.475L.474.477.473.476V.474H.472V.457L.475.456V.453h.001V.451L.477.45V.448h.001V.446h.001L.48.423m.015.012v.006L.492.445v.001L.491.447v.001L.49.45v.003L.488.455v.001L.486.47"/><path d="M.65.356V.353L.647.345H.645L.65.341.657.35V.34L.662.337.661.339V.34l.004.008V.35h.002L.661.353h.001V.35L.658.34v.014L.648.345l.004.009h.003v.001zM.632.351v.003L.635.36l.002.002H.64Q.642.36.64.359V.356L.636.351V.35H.634L.637.347V.35L.64.356.642.36.64.363H.634L.632.362.63.355H.626ZM.615.377h.001V.374L.61.367H.609L.611.363l.01.003L.62.362H.616L.62.358v.003l.006.01L.612.368l.004.006.001.001H.62zM.597.376V.38L.6.384l.002.002h.003L.607.381.606.38.602.375H.599L.602.37v.003L.606.38l.002.004-.002.004H.6L.598.386.594.381H.591Zm-.161.02L.434.399.435.4l.002.001h.002v-.01L.443.39l.004.001v.002l.001.001h.001L.446.4V.392H.442v.011H.435L.434.4V.399H.431zM.434.38H.431L.427.386.425.388l.001.003Q.427.393.43.392L.432.39.436.386V.383L.44.386H.436L.432.391.43.393Q.427.393.425.391.422.39.423.387L.424.384.43.38V.376zM.421.376.425.372H.42v.003zM.415.381l.002.001L.42.381V.378L.418.376.415.38M.41.378h.002L.419.37V.368L.422.37l.003.002v.004L.424.378H.42L.422.38v.003L.419.384.415.382zM.402.372h.002L.41.364V.362l.006.004H.414L.406.374v.002zM.398.362V.36H.4L.401.358.4.356H.399L.395.36zm-.01.001H.39L.395.355V.353L.4.354l.003.002V.36q0 .002-.002.002H.4v.009L.396.369V.361L.392.364v.003zM.362.353h.002l.004-.01V.342L.365.34l.007.002H.371v.001l-.004.01.002.001h.003L.375.352.373.357zM.385.348H.383v.001L.38.355V.36h.004L.386.357.388.352V.349L.392.35H.39v.002L.386.358.384.36H.38L.376.357.377.354.38.348V.346H.379V.344zM.36.344V.338H.357L.356.344zM.349.35h.002V.347L.355.34V.336L.36.338q.003 0 .003.002v.005H.356L.355.349l.001.002zM.326.344h.002V.341L.33.332.328.33l.011.001v.004L.336.333H.334L.333.331.331.338h.002L.336.335.335.342.333.339.332.338.33.343l.001.001h.003L.338.342v.004z"/><path fill="#f2c007" d="M.462.43V.42Q.46.417.466.41A.04.04 0 0 1 .485.405Q.488.401.494.402l.004.002c0 .002 0 .01.005.016l.004.01c0 .002-.001.01-.003.011L.48.43H.467S.464.427.462.43"/><path fill="none" stroke="#000" stroke-width=".004" d="M.48.43.468.429M.504.414h.001L.507.412h.021Q.532.417.532.42m-.04 0L.487.414m.005.011V.43h.001v.005l.01.007C.504.444.502.452.5.452L.492.468Q.49.473.494.477C.497.48.51.47.512.467.51.473.512.482.515.483c.004.001.009-.018.01-.02-.001.003.005.023.01.02C.541.48.541.465.541.463c0 .002.009.021.014.016S.557.467.556.465C.558.463.558.455.558.455q-.002-.003 0-.01C.56.443.56.43.56.427L.558.42S.565.417.561.414A.1.1 0 0 0 .523.401Q.5.398.497.404.487.403.485.406C.481.406.452.41.465.432Q.463.422.482.424q.02.005.022.008C.502.429.504.425.495.422"/><path d="M.508.414h.01Q.524.416.52.418C.516.421.507.414.508.414"/><path fill="#fff" stroke="#000" stroke-width=".004" d="M.421.215V.212H.42V.198h.001V.196h.002V.194L.426.193.428.19H.43L.432.188h.003L.436.187h.01A.019.019 0 0 1 .477.173C.48.157.5.148.512.165.52.151.546.152.548.172.554.162.583.163.58.189.588.182.615.19.605.215.623.213.633.235.62.248a.02.02 0 0 1 .003.036C.64.3.628.318.614.32.624.339.61.352.594.35.595.368.58.38.563.372.562.39.544.396.53.384.521.4.501.399.494.382A.02.02 0 0 1 .46.371C.446.378.428.369.432.348.415.35.403.334.412.318.398.316.388.298.404.284.391.277.388.256.406.248.396.234.403.216.421.215z"/><path fill="none" stroke="#d1d3d4" stroke-width=".004" d="M.424.217V.216H.422V.21H.421V.203h.001V.2h.003V.198L.428.197V.196h.001L.43.193h.004V.191h.004V.19h.008l.002.001a.018.018 0 0 1 .03-.017C.48.161.5.153.512.17.519.155.544.156.546.176.552.167.58.167.576.192c.01-.006.036.002.026.025C.618.215.628.236.615.25a.019.019 0 0 1 .003.035C.635.299.623.317.61.318.62.336.606.35.59.348.592.364.578.376.562.367.56.386.542.391.529.38.52.396.501.394.494.379A.019.019 0 0 1 .461.367C.448.374.431.365.434.345.418.348.407.332.415.317.402.314.392.297.408.283.395.277.392.257.41.25.399.236.406.218.424.217z"/><path fill="#4da7d3" stroke="#000" stroke-width=".004" d="M.437.225v.002l.001.001v.003L.44.234V.24L.437.241v.001L.436.243v.003L.434.247v.001H.432V.25H.43v.001H.427v.001H.425a.02.02 0 0 1-.003.03Q.44.294.43.31a.02.02 0 0 1 .016.025C.456.333.47.342.47.355a.02.02 0 0 1 .028.01q.015-.015.03 0C.532.352.547.348.555.354.555.343.57.333.58.338.575.323.587.313.596.312a.02.02 0 0 1 .009-.03C.594.278.593.262.602.253A.02.02 0 0 1 .59.225C.581.227.566.217.569.202A.02.02 0 0 1 .542.188C.533.197.517.193.512.184.51.192.497.199.484.189a.02.02 0 0 1-.026.015c.001.014-.01.022-.02.021z"/><path stroke="#fff" stroke-width=".002" d="M.56.272.595.27M.499.219.493.2m0 .037L.476.208M.472.232.458.218M.46.242.442.231M.46.258.439.252m.03.02H.437m.035.01L.438.288M.46.3.442.31m.024.006L.454.328M.487.31.469.336m.027-.02-.01.03M.53.317l.012.03m0-.033L.56.336M.563.314l.014.012M.57.3l.02.01M.56.283l.03.005M.57.26.59.25M.568.242.584.23M.549.238l.018-.02m-.032.02L.55.207M.533.2.528.217M.513.193V.21m-.01.129L.5.357M.52.339l.005.017"/><path fill="#fff" d="M.513.262.516.27h.008L.518.275l.003.01L.514.278.506.284.509.276.502.27H.51zm0-.049.003.008h.009L.518.226l.003.01L.514.23.506.235.51.227.503.22H.51zm-.04.024.002.008h.008L.477.25.48.26.473.253.465.26.468.251.46.245h.01zm.028 0 .002.008h.009L.506.25l.002.01L.501.253.493.26.496.251.49.245h.008zm.028 0 .003.008H.54L.534.25l.003.01L.529.253.522.26.525.251.518.245h.008zm.028 0L.56.245h.008L.562.25l.003.01L.558.253.55.26.553.251.546.245h.008zM.515.312.517.32h.009L.52.325l.003.01L.515.328.507.334.51.325.504.32h.008zM.472.288l.002.008h.009L.477.301l.002.01L.472.304.464.31.467.3.461.296h.008zm.028 0 .003.008H.51L.505.301l.003.01L.5.304.493.31.496.3.489.296h.008zm.03 0 .002.008h.009L.535.301l.003.01L.53.304.523.31.526.3.519.296h.008zm.029 0L.56.296h.01L.564.301l.003.01L.559.304.551.31.554.3.548.296h.008zM.543.263.546.27h.008L.548.276l.003.009L.543.28.536.285.539.276.532.271H.54zm-.058 0L.487.27h.01L.49.276l.003.009L.485.28.478.285.48.276.474.271h.008Z"/><path fill="#fff" stroke="#e8cc0c" stroke-width=".004" d="M.588.517v.158q.001.01-.01.011H.522C.515.686.517.689.514.692.513.69.514.686.507.686H.451Q.44.686.438.676V.518z"/><path fill="#ce171e" d="M.45.684h.012v-.11H.45Zm.024 0h.012v-.11H.474zm.023 0h.011v-.11H.497zm.024 0h.011v-.11H.521zm.022 0h.012v-.11H.543zm.023 0h.012v-.11H.566z"/><path fill="#005696" d="M.44.519h.147v.056H.44z"/></svg>